<svg width="115" height="128" viewBox="0 0 115 128" fill="none" xmlns="http://www.w3.org/2000/svg">
<g clip-path="url(#clip0_139_234)">
<path d="M63.8242 30.4176H63.1209V11.151C63.1209 8.19357 61.946 5.35727 59.8548 3.26606C57.7636 1.17484 54.9273 3.73169e-06 51.9699 0H11.151C9.68661 -3.69543e-06 8.23658 0.288421 6.88368 0.848807C5.53077 1.40919 4.3015 2.23057 3.26603 3.26603C2.23057 4.30149 1.40919 5.53076 0.848797 6.88366C0.288405 8.23656 -2.72841e-05 9.68658 -3.05176e-05 11.151V116.849C-3.19034e-05 118.313 0.288392 119.763 0.848781 121.116C1.40917 122.469 2.23055 123.698 3.26601 124.734C4.30148 125.769 5.53075 126.591 6.88365 127.151C8.23655 127.712 9.68658 128 11.1509 128H51.9698C54.9273 128 57.7636 126.825 59.8548 124.734C61.946 122.643 63.1208 119.806 63.1209 116.849V44.1319H63.8242V30.4176Z" fill="#E6E6E6"/>
<path d="M52.4198 2.90108H47.0916C47.3366 3.50181 47.4301 4.15359 47.3639 4.79899C47.2977 5.44439 47.0738 6.0636 46.7119 6.60208C46.3501 7.14057 45.8613 7.58179 45.2887 7.88688C44.7162 8.19197 44.0773 8.35157 43.4285 8.35162H20.0439C19.3951 8.35157 18.7563 8.19198 18.1837 7.88688C17.6112 7.58179 17.1224 7.14056 16.7605 6.60208C16.3986 6.0636 16.1747 5.44438 16.1085 4.79898C16.0423 4.15358 16.1359 3.5018 16.3809 2.90106H11.4043C9.19577 2.90106 7.07765 3.77841 5.51596 5.3401C3.95426 6.9018 3.07691 9.01991 3.0769 11.2285V116.771C3.0769 118.98 3.95425 121.098 5.51595 122.66C7.07764 124.222 9.19575 125.099 11.4043 125.099H52.4198C53.5134 125.099 54.5962 124.884 55.6066 124.465C56.6169 124.047 57.5349 123.433 58.3082 122.66C59.0815 121.887 59.6948 120.969 60.1133 119.958C60.5318 118.948 60.7472 117.865 60.7472 116.771V11.2285C60.7472 10.1349 60.5318 9.05205 60.1133 8.04172C59.6948 7.03139 59.0815 6.11339 58.3082 5.34011C57.5349 4.56684 56.6169 3.95345 55.6066 3.53496C54.5962 3.11647 53.5134 2.90108 52.4198 2.90108Z" fill="white"/>
<path d="M57.3628 85.7965H8.18401C7.94257 85.7963 7.71109 85.7002 7.54036 85.5295C7.36964 85.3588 7.27359 85.1273 7.27332 84.8858V72.6868C7.27359 72.4453 7.36964 72.2138 7.54036 72.0431C7.71109 71.8724 7.94257 71.7763 8.18401 71.7761H57.3628C57.6043 71.7763 57.8357 71.8724 58.0065 72.0431C58.1772 72.2138 58.2732 72.4453 58.2735 72.6868V84.886C58.2732 85.1274 58.1771 85.3589 58.0064 85.5296C57.8357 85.7002 57.6042 85.7963 57.3628 85.7965ZM8.18401 72.1403C8.03913 72.1404 7.90022 72.1981 7.79777 72.3005C7.69532 72.403 7.6377 72.5419 7.63756 72.6868V84.886C7.6377 85.0309 7.69532 85.1698 7.79777 85.2723C7.90022 85.3747 8.03913 85.4323 8.18401 85.4325H57.3628C57.5077 85.4323 57.6466 85.3747 57.7491 85.2723C57.8515 85.1698 57.9091 85.0309 57.9093 84.886V72.6868C57.9091 72.5419 57.8515 72.403 57.7491 72.3005C57.6466 72.1981 57.5077 72.1404 57.3628 72.1403H8.18401Z" fill="#E6E6E6"/>
<path d="M14.5589 82.6112C16.6714 82.6112 18.3839 80.8987 18.3839 78.7862C18.3839 76.6737 16.6714 74.9612 14.5589 74.9612C12.4464 74.9612 10.7339 76.6737 10.7339 78.7862C10.7339 80.8987 12.4464 82.6112 14.5589 82.6112Z" fill="#E6E6E6"/>
<path d="M23.3929 76.2364C23.2257 76.2391 23.0662 76.3075 22.9489 76.4268C22.8317 76.546 22.7659 76.7066 22.7659 76.8738C22.7659 77.0411 22.8317 77.2016 22.9489 77.3209C23.0662 77.4401 23.2257 77.5085 23.3929 77.5113H53.4465C53.6156 77.5145 53.779 77.4505 53.9009 77.3333C54.0227 77.216 54.093 77.0552 54.0963 76.8861C54.0996 76.7171 54.0355 76.5537 53.9183 76.4318C53.801 76.31 53.6402 76.2397 53.4712 76.2364L53.4675 76.2364C53.4605 76.2362 53.4535 76.2362 53.4466 76.2364H23.3929Z" fill="#E6E6E6"/>
<path d="M23.3929 80.0613C23.2257 80.0641 23.0662 80.1325 22.9489 80.2517C22.8317 80.371 22.7659 80.5315 22.7659 80.6988C22.7659 80.866 22.8317 81.0266 22.9489 81.1458C23.0662 81.2651 23.2257 81.3335 23.3929 81.3363H53.4465C53.6153 81.3386 53.7782 81.2739 53.8993 81.1564C54.0205 81.0388 54.0901 80.878 54.0929 80.7092C54.0956 80.5404 54.0314 80.3774 53.9141 80.256C53.7969 80.1345 53.6363 80.0645 53.4675 80.0613C53.4605 80.0612 53.4535 80.0612 53.4465 80.0613H23.3929Z" fill="#E6E6E6"/>
<path d="M57.3628 106.197H8.18401C7.94257 106.196 7.71109 106.1 7.54036 105.93C7.36964 105.759 7.27359 105.527 7.27332 105.286V93.0868C7.27359 92.8454 7.36964 92.6139 7.54036 92.4432C7.71109 92.2724 7.94257 92.1764 8.18401 92.1761H57.3628C57.6043 92.1764 57.8357 92.2724 58.0065 92.4432C58.1772 92.6139 58.2732 92.8454 58.2735 93.0868V105.286C58.2732 105.527 58.1771 105.759 58.0064 105.93C57.8357 106.1 57.6042 106.196 57.3628 106.197ZM8.18401 92.5404C8.03913 92.5405 7.90022 92.5981 7.79777 92.7006C7.69532 92.803 7.6377 92.9419 7.63756 93.0868V105.286C7.6377 105.431 7.69532 105.57 7.79777 105.672C7.90022 105.775 8.03913 105.832 8.18401 105.832H57.3628C57.5077 105.832 57.6466 105.775 57.7491 105.672C57.8515 105.57 57.9091 105.431 57.9093 105.286V93.0868C57.9091 92.9419 57.8515 92.803 57.7491 92.7006C57.6466 92.5981 57.5077 92.5405 57.3628 92.5404H8.18401Z" fill="#E6E6E6"/>
<path d="M14.5589 103.011C16.6714 103.011 18.3839 101.299 18.3839 99.1863C18.3839 97.0738 16.6714 95.3613 14.5589 95.3613C12.4464 95.3613 10.7339 97.0738 10.7339 99.1863C10.7339 101.299 12.4464 103.011 14.5589 103.011Z" fill="#E6E6E6"/>
<path d="M23.3929 96.6364C23.2257 96.6392 23.0662 96.7076 22.9489 96.8268C22.8317 96.9461 22.7659 97.1066 22.7659 97.2739C22.7659 97.4411 22.8317 97.6017 22.9489 97.7209C23.0662 97.8402 23.2257 97.9086 23.3929 97.9113H53.4465C53.6153 97.9137 53.7782 97.849 53.8993 97.7314C54.0205 97.6139 54.0901 97.4531 54.0929 97.2843C54.0956 97.1155 54.0314 96.9525 53.9141 96.8311C53.7969 96.7096 53.6363 96.6396 53.4675 96.6364C53.4605 96.6363 53.4535 96.6363 53.4465 96.6364H23.3929Z" fill="#E6E6E6"/>
<path d="M23.3929 100.461C23.2257 100.464 23.0662 100.533 22.9489 100.652C22.8317 100.771 22.7659 100.932 22.7659 101.099C22.7659 101.266 22.8317 101.427 22.9489 101.546C23.0662 101.665 23.2257 101.734 23.3929 101.736H53.4465C53.6153 101.739 53.7782 101.674 53.8993 101.556C54.0205 101.439 54.0901 101.278 54.0929 101.109C54.0956 100.941 54.0314 100.778 53.9141 100.656C53.7969 100.535 53.6363 100.465 53.4675 100.461C53.4605 100.461 53.4535 100.461 53.4465 100.461H23.3929Z" fill="#E6E6E6"/>
<path d="M31.7384 60.4815C27.1512 60.4834 22.751 58.663 19.506 55.4206C16.2609 52.1783 14.4368 47.7797 14.4349 43.1924V43.1779C14.4349 43.1417 14.4349 43.1035 14.437 43.0673C14.4897 33.5912 22.2516 25.8742 31.7384 25.8742C36.3276 25.8737 40.7291 27.6962 43.9745 30.9409C47.2199 34.1856 49.0434 38.5866 49.044 43.1758C49.0445 47.765 47.222 52.1664 43.9773 55.4118C40.7326 58.6573 36.3316 60.4808 31.7424 60.4813H31.7384V60.4815ZM31.7384 26.2381C27.2663 26.2481 22.9787 28.0225 19.8074 31.1757C16.636 34.3289 14.8371 38.6062 14.8014 43.0782C14.7995 43.1169 14.7995 43.1486 14.7995 43.1774C14.7991 46.5281 15.7922 49.8037 17.6534 52.5899C19.5146 55.3762 22.1603 57.5479 25.2557 58.8306C28.3512 60.1132 31.7575 60.4491 35.0439 59.7959C38.3303 59.1426 41.3492 57.5294 43.7188 55.1604C46.0884 52.7914 47.7023 49.7729 48.3564 46.4867C49.0105 43.2005 48.6754 39.7941 47.3935 36.6983C46.1117 33.6025 43.9406 30.9563 41.1548 29.0944C38.369 27.2325 35.0937 26.2385 31.743 26.2381H31.7384Z" fill="#E6E6E6"/>
<path d="M55.4216 81.4036C59.3069 81.4036 62.4567 78.2539 62.4567 74.3685C62.4567 70.4831 59.3069 67.3334 55.4216 67.3334C51.5362 67.3334 48.3864 70.4831 48.3864 74.3685C48.3864 78.2539 51.5362 81.4036 55.4216 81.4036Z" fill="white"/>
<path d="M52.9782 77.5336C52.9662 77.5336 52.9541 77.5335 52.942 77.5332H49.1606C48.6808 77.5256 48.2232 77.3298 47.8865 76.9878C47.5498 76.6459 47.361 76.1854 47.3608 75.7055C47.3606 75.2256 47.5491 74.7649 47.8855 74.4227C48.2219 74.0806 48.6793 73.8843 49.1591 73.8763H52.9437C52.9623 73.876 52.9824 73.876 53.0024 73.8763C53.4851 73.883 53.9456 74.0802 54.2835 74.425C54.6213 74.7698 54.8091 75.2343 54.8059 75.717C54.8027 76.1997 54.6088 76.6616 54.2664 77.0019C53.924 77.3422 53.461 77.5333 52.9782 77.5336Z" fill="#727277"/>
<path d="M114.211 127.572H57.221V127.966H114.211V127.572Z" fill="#3F3D56"/>
<path d="M60.7323 94.2232C60.6875 94.1536 60.6504 94.0793 60.6215 94.0018L59.7134 91.57C59.6077 91.2859 59.619 90.9715 59.7448 90.6958C59.8706 90.42 60.1006 90.2054 60.3844 90.0991L80.653 82.5307C80.937 82.4249 81.2514 82.4362 81.5272 82.562C81.803 82.6878 82.0175 82.9178 82.1239 83.2016L83.0319 85.6336C83.0844 85.7742 83.1087 85.9239 83.1034 86.0739C83.0981 86.2239 83.0633 86.3714 83.001 86.508C82.9387 86.6446 82.8501 86.7676 82.7402 86.8699C82.6304 86.9722 82.5015 87.0519 82.3608 87.1044L62.0924 94.6728C61.8484 94.7638 61.5806 94.7689 61.3333 94.6871C61.086 94.6054 60.874 94.4417 60.7323 94.2232Z" fill="#727277"/>
<path d="M80.5885 81.9023L72.3463 85.189C72.0866 85.2671 71.8669 85.4422 71.7329 85.678C71.5988 85.9138 71.5607 86.1921 71.6264 86.4552L72.5829 90.285C72.6207 90.4363 72.6916 90.5773 72.7904 90.698C72.8892 90.8186 73.0135 90.9158 73.1543 90.9827C73.2952 91.0495 73.4492 91.0843 73.6051 91.0846C73.761 91.0848 73.9151 91.0505 74.0562 90.9841L82.3211 87.0939C82.5829 86.9956 82.7951 86.7976 82.9113 86.5433C83.0275 86.2889 83.0381 85.9988 82.9409 85.7366L81.9474 82.5223C81.8493 82.2601 81.651 82.0475 81.3962 81.9312C81.1414 81.815 80.8509 81.8046 80.5885 81.9023Z" fill="#2F2E41"/>
<path d="M95.6722 105.762C95.4134 105.792 95.1522 105.732 94.9318 105.594C94.7114 105.455 94.545 105.245 94.46 104.999L87.4048 84.5461C87.3559 84.4042 87.3353 84.2541 87.3444 84.1042C87.3535 83.9544 87.392 83.8078 87.4577 83.6728C87.5234 83.5378 87.6151 83.4171 87.7275 83.3176C87.8399 83.218 87.9708 83.1416 88.1127 83.0927L90.5667 82.2461C90.8533 82.1474 91.1674 82.1666 91.4399 82.2993C91.7124 82.4321 91.9211 82.6676 92.0201 82.954L99.0754 103.407C99.1738 103.694 99.1546 104.008 99.0219 104.28C98.8892 104.552 98.6538 104.761 98.3674 104.86L95.9135 105.707C95.8353 105.734 95.7544 105.752 95.6722 105.762Z" fill="#727277"/>
<path d="M92.546 82.604L95.2538 91.0541C95.3587 91.3042 95.3634 91.5851 95.2667 91.8385C95.1701 92.0919 94.9796 92.2984 94.7348 92.4151L91.1714 94.1136C91.0307 94.1807 90.8768 94.2157 90.7209 94.2162C90.5649 94.2168 90.4108 94.1827 90.2696 94.1165C90.1284 94.0504 90.0037 93.9538 89.9043 93.8336C89.8049 93.7134 89.7334 93.5728 89.6948 93.4217L87.4383 84.5701C87.3475 84.3056 87.3652 84.0159 87.4876 83.7644C87.6099 83.5129 87.8269 83.3202 88.0911 83.2283L91.2031 81.95C91.4679 81.8589 91.758 81.8766 92.0098 81.9992C92.2616 82.1219 92.4544 82.3394 92.546 82.604Z" fill="#2F2E41"/>
<path d="M84.3474 127.688H81.7516C81.4485 127.687 81.1579 127.567 80.9436 127.353C80.7293 127.138 80.6087 126.848 80.6084 126.545V104.909C80.6087 104.606 80.7293 104.315 80.9436 104.101C81.1579 103.887 81.4485 103.766 81.7516 103.766H84.3474C84.6505 103.766 84.9411 103.887 85.1554 104.101C85.3697 104.315 85.4903 104.606 85.4906 104.909V126.545C85.4903 126.848 85.3697 127.138 85.1554 127.353C84.9411 127.567 84.6505 127.687 84.3474 127.688Z" fill="#2F2E41"/>
<path d="M89.4817 127.688H86.8858C86.5827 127.687 86.2922 127.567 86.0778 127.353C85.8635 127.138 85.743 126.848 85.7426 126.545V104.909C85.743 104.606 85.8635 104.315 86.0778 104.101C86.2922 103.887 86.5827 103.766 86.8858 103.766H89.4817C89.7848 103.766 90.0754 103.887 90.2897 104.101C90.504 104.315 90.6246 104.606 90.6249 104.909V126.545C90.6246 126.848 90.504 127.138 90.2897 127.353C90.0754 127.567 89.7848 127.687 89.4817 127.688Z" fill="#2F2E41"/>
<path d="M91.621 107.453H79.8262C79.4998 107.452 79.1869 107.322 78.9561 107.092C78.7253 106.861 78.5955 106.548 78.5951 106.222V87.0606C78.5951 85.17 79.3461 83.3568 80.683 82.02C82.0199 80.6831 83.833 79.9321 85.7236 79.9321C87.6142 79.9321 89.4274 80.6831 90.7643 82.02C92.1011 83.3568 92.8522 85.17 92.8522 87.0606V106.222C92.8518 106.548 92.722 106.861 92.4912 107.092C92.2604 107.322 91.9475 107.452 91.621 107.453Z" fill="#CCCCCC"/>
<path d="M93.3964 112.14H87.4166V78.344L87.5276 78.3743C89.2118 78.8366 90.6978 79.8385 91.7578 81.2264C92.8179 82.6143 93.3935 84.3115 93.3964 86.0579V112.14Z" fill="#2F2E41"/>
<path d="M83.5447 112.14H77.5648V86.0579C77.5677 84.3115 78.1433 82.6143 79.2034 81.2264C80.2635 79.8385 81.7495 78.8366 83.4336 78.3743L83.5447 78.344V112.14Z" fill="#2F2E41"/>
<path d="M85.6344 75.9686C90.833 75.9686 95.0472 71.7543 95.0472 66.5558C95.0472 61.3572 90.833 57.1429 85.6344 57.1429C80.4358 57.1429 76.2216 61.3572 76.2216 66.5558C76.2216 71.7543 80.4358 75.9686 85.6344 75.9686Z" fill="#727277"/>
<path d="M96.2763 64.3887C96.2763 64.3887 96.8039 49.7909 89.9447 54.5396C89.9447 54.5396 85.9874 41.2608 76.3142 61.135L73.5001 63.949C73.5001 63.949 86.1633 62.1902 97.9471 67.6424L96.2763 64.3887Z" fill="#2F2E41"/>
<path d="M85.7779 71.2174C85.1965 71.2013 84.4729 71.1811 83.9154 70.7739C83.7494 70.6476 83.613 70.4866 83.5158 70.3021C83.4186 70.1176 83.3628 69.9141 83.3526 69.7058C83.3425 69.5578 83.3668 69.4094 83.4235 69.2723C83.4803 69.1352 83.568 69.0131 83.6798 68.9155C83.9709 68.6695 84.3961 68.6118 84.8543 68.7465L84.3796 65.2772L84.7281 65.2294L85.2862 69.308L84.9952 69.1745C84.6578 69.0197 84.1946 68.941 83.9068 69.1842C83.8361 69.2478 83.7811 69.3268 83.7459 69.4151C83.7108 69.5034 83.6964 69.5987 83.7041 69.6934C83.7126 69.8484 83.7544 69.9998 83.8267 70.1372C83.899 70.2747 84 70.3949 84.1229 70.4898C84.5567 70.8067 85.1335 70.8475 85.7877 70.8658L85.7779 71.2174Z" fill="#2F2E41"/>
<path d="M82.6561 65.5763H80.7617V65.9281H82.6561V65.5763Z" fill="#2F2E41"/>
<path d="M88.636 65.5763H86.7415V65.9281H88.636V65.5763Z" fill="#2F2E41"/>
<path d="M64.6476 95.1205C64.3937 95.2383 64.1034 95.2504 63.8406 95.1542C63.5778 95.0579 63.364 94.8613 63.2462 94.6074L57.1765 81.5249C57.0588 81.271 57.0467 80.9808 57.1429 80.718C57.2392 80.4552 57.4358 80.2414 57.6897 80.1236C57.9435 80.0059 58.2338 79.9937 58.4966 80.0899C58.7594 80.1861 58.9732 80.3828 59.091 80.6366L65.1607 93.7191C65.2785 93.973 65.2906 94.2633 65.1944 94.5261C65.0982 94.7889 64.9015 95.0027 64.6476 95.1205Z" fill="#3F3D56"/>
<path d="M58.4115 81.0435C58.2249 81.0435 58.046 80.9694 57.914 80.8374C57.7821 80.7055 57.708 80.5266 57.708 80.34V71.3786H48.9141C48.7275 71.3786 48.5486 71.3044 48.4166 71.1725C48.2847 71.0406 48.2106 70.8616 48.2106 70.675C48.2106 70.4885 48.2847 70.3095 48.4166 70.1776C48.5486 70.0456 48.7275 69.9715 48.9141 69.9715H58.4115C58.5981 69.9715 58.777 70.0456 58.9089 70.1776C59.0409 70.3095 59.115 70.4885 59.115 70.675V80.34C59.115 80.5266 59.0409 80.7055 58.9089 80.8374C58.777 80.9694 58.5981 81.0435 58.4115 81.0435Z" fill="#727277"/>
<path d="M58.5778 82.038C57.0632 82.7407 55.3742 82.9785 53.7245 82.7213C52.0747 82.4641 50.5382 81.7235 49.3094 80.5931C48.0806 79.4627 47.2145 77.9933 46.8208 76.3707C46.427 74.748 46.5233 73.0451 47.0974 71.4772C47.6715 69.9093 48.6977 68.5469 50.0461 67.5622C51.3945 66.5775 53.0046 66.0147 54.6729 65.9451C56.3411 65.8755 57.9926 66.3022 59.4183 67.1711C60.8441 68.0401 61.9802 69.3123 62.6829 70.8269C63.6226 72.8583 63.7181 75.1795 62.9486 77.2813C62.179 79.383 60.6071 81.0937 58.5778 82.038ZM52.3601 68.6364C51.2241 69.1634 50.2699 70.0155 49.6182 71.0848C48.9665 72.1541 48.6465 73.3927 48.6987 74.6439C48.751 75.8951 49.173 77.1027 49.9115 78.114C50.6501 79.1253 51.6719 79.8949 52.8478 80.3255C54.0237 80.7561 55.3009 80.8283 56.5179 80.533C57.7348 80.2377 58.8369 79.5881 59.6847 78.6665C60.5325 77.7449 61.088 76.5925 61.2809 75.3552C61.4738 74.1179 61.2954 72.8511 60.7684 71.7152C60.0602 70.1932 58.7772 69.0143 57.2009 68.4371C55.6245 67.86 53.8836 67.9316 52.3601 68.6364Z" fill="#3F3D56"/>
</g>
<defs>
<clipPath id="clip0_139_234">
<rect width="114.211" height="128" fill="white"/>
</clipPath>
</defs>
</svg>
